<?xml version="1.0" standalone="no"?>
<!DOCTYPE svg PUBLIC "-//W3C//DTD SVG 20010904//EN"
 "http://www.w3.org/TR/2001/REC-SVG-20010904/DTD/svg10.dtd">
<svg version="1.0" xmlns="http://www.w3.org/2000/svg"
 width="1280.000000pt" height="1280.000000pt" viewBox="0 0 1280.000000 1280.000000"
 preserveAspectRatio="xMidYMid meet">
<metadata>
Created by potrace 1.15, written by Peter Selinger 2001-2017
</metadata>
<g transform="translate(0.000000,1280.000000) scale(0.100000,-0.100000)"
fill="#000000" stroke="none">
<path  id="svgInternalID" fill = "#480692" d="M7159 12404 c-61 -18 -124 -82 -161 -161 -25 -52 -97 -344 -98 -393
0 -9 -23 -38 -51 -65 -180 -176 -273 -375 -324 -695 -12 -75 -32 -144 -72
-245 -30 -76 -55 -157 -56 -180 -2 -39 -1 -40 31 -37 17 1 32 -1 32 -5 0 -11
-109 -90 -220 -159 -187 -118 -280 -167 -330 -175 -64 -10 -289 -99 -369 -146
-35 -21 -80 -54 -99 -73 -66 -68 -67 -72 -67 -320 -1 -309 -10 -334 -178 -458
-51 -38 -107 -87 -125 -110 -69 -87 -111 -219 -157 -498 -47 -285 -62 -328
-166 -482 -111 -162 -161 -277 -207 -477 -17 -73 -23 -152 -32 -420 -12 -353
-19 -508 -23 -512 -2 -1 -52 38 -112 86 -1168 939 -2417 1927 -2449 1938 -99
35 -180 -62 -134 -162 7 -16 205 -181 477 -398 1544 -1231 2201 -1757 2201
-1761 0 -2 -11 -28 -25 -58 -17 -37 -25 -70 -25 -111 0 -54 3 -60 42 -103 52
-57 113 -92 341 -199 l182 -86 31 34 c17 19 33 40 36 47 3 9 56 -28 151 -104
81 -65 147 -119 147 -120 0 0 -13 -54 -30 -118 -44 -176 -58 -306 -65 -603 -9
-379 -24 -475 -102 -630 -25 -49 -77 -137 -116 -195 -224 -330 -257 -397 -317
-660 -92 -394 -101 -495 -110 -1205 l-7 -600 -35 -80 c-33 -73 -55 -151 -117
-420 -20 -85 -24 -93 -71 -136 -85 -79 -153 -254 -130 -339 28 -102 105 -119
460 -96 232 15 235 16 258 41 32 38 29 98 -14 224 -49 143 -46 170 35 340 76
157 81 199 37 275 l-28 48 18 40 c14 32 15 43 6 59 -27 42 -16 82 117 427 277
720 339 887 394 1072 33 110 42 163 67 415 13 130 32 246 61 370 18 79 27 97
71 150 148 177 220 292 258 410 20 61 33 81 104 155 59 63 97 115 140 193 32
59 60 107 62 107 2 0 217 -170 477 -378 l473 -379 48 -124 c63 -164 66 -197
27 -385 -23 -109 -31 -178 -31 -250 0 -55 -4 -104 -10 -110 -12 -12 32 -212
96 -439 25 -88 107 -351 184 -585 162 -495 171 -527 205 -683 45 -208 34 -375
-35 -535 -13 -31 -19 -57 -14 -61 18 -17 421 -204 530 -247 163 -64 284 -85
565 -100 139 -8 189 2 215 41 57 87 -87 241 -410 441 l-126 78 -100 151 c-113
172 -145 238 -160 327 -6 38 -10 298 -10 643 0 319 -5 648 -10 730 -12 174
-28 327 -39 371 -8 30 -7 32 30 43 51 15 79 53 79 105 0 54 -26 90 -116 160
-84 65 -80 52 -90 301 -6 181 -8 192 -27 176 -11 -9 -17 11 -30 102 -35 237
-38 287 -24 370 8 43 16 79 19 82 2 2 39 -7 81 -20 136 -44 242 -30 362 46 47
30 49 30 62 12 8 -10 16 -28 20 -40 3 -13 11 -23 19 -23 15 0 91 125 158 258
228 455 315 849 303 1366 -16 721 -205 1157 -743 1715 l-139 144 -5 -163 -5
-163 -68 -19 c-92 -25 -123 -42 -179 -96 -51 -49 -54 -50 -37 -5 6 15 11 64
10 108 0 91 -29 214 -110 470 -28 88 -51 166 -51 173 0 7 20 21 44 31 26 12
45 27 49 40 5 19 8 20 31 10 32 -15 67 -1 91 35 15 22 15 31 0 113 -23 124
-71 312 -104 407 -64 185 -174 355 -342 531 l-57 60 -5 220 -4 220 74 88 75
88 29 172 c40 240 52 387 46 567 -6 175 -19 238 -74 350 -27 55 -57 96 -112
151 -42 42 -87 83 -99 92 l-24 15 13 149 c13 147 13 148 45 178 29 28 104 178
104 209 0 9 -29 19 -87 30 -106 19 -163 19 -224 0z m-1391 -3871 c115 -172
201 -360 208 -458 2 -28 10 -82 19 -120 26 -115 31 -324 10 -446 -28 -171
-111 -416 -233 -694 -22 -49 -65 -146 -95 -215 -30 -69 -96 -218 -146 -333
-50 -114 -91 -212 -91 -218 0 -17 -15 -8 -108 65 l-87 69 3 88 4 87 -44 48
c-45 49 -80 74 -175 125 -32 17 -61 34 -66 38 -21 20 -32 148 -17 212 6 30 14
70 16 89 4 45 39 145 99 285 58 136 85 218 85 256 0 16 24 80 54 142 128 266
188 454 212 665 5 47 14 72 36 100 37 47 260 272 270 272 4 0 25 -26 46 -57z
m960 -2993 l110 -134 123 -339 c67 -186 120 -339 118 -341 -4 -3 -642 503
-670 531 -10 10 3 49 59 180 39 92 79 196 88 231 l18 63 22 -28 c12 -15 71
-89 132 -163z"/>
</g>
</svg>
